<svg xmlns="http://www.w3.org/2000/svg" xmlns:xlink="http://www.w3.org/1999/xlink" xmlns:sketch="http://www.bohemiancoding.com/sketch/ns" viewBox="0 0 94 120" version="1.1" x="0px" y="0px"><title>5</title><desc>Created with Sketch.</desc><g stroke="none" stroke-width="1" fill="none" fill-rule="evenodd" sketch:type="MSPage"><g sketch:type="MSLayerGroup" transform="translate(-341.000000, -332.000000)" fill="#000000"><g transform="translate(345.000000, 331.000000)" sketch:type="MSShapeGroup"><path d="M76.0946793,21.1469502 L30.5102555,68.0944591 L30.5102555,68.0944591 L36.6128572,73.9556447 L15.7409246,95.4516988 C15.7409246,95.4516988 9.99790481,98.8929116 1.74773829,90.9691178 C-6.50242824,83.045324 -3.24494726,77.2168992 -3.24494726,77.2168992 L17.6269853,55.7208451 L24.0008137,61.8425278 L69.4085218,15.0770189 C68.5063665,11.4301622 70.8132937,8.2318987 70.8132937,8.2318987 L81.3955464,2.73155308 L87.9049881,8.98348438 L82.4760435,19.4332756 C82.4760435,19.4332756 79.5924254,21.6462908 76.0946793,21.1469502 L76.0946793,21.1469502 Z M24.7806381,69.9866312 L28.5778125,73.6335911 L12.8378419,89.8442251 L9.04066751,86.1972652 L24.7806381,69.9866312 L24.7806381,69.9866312 Z M17.6162971,63.6120368 L21.4134715,67.2589967 L5.67350087,83.4696307 L1.8763265,79.8226708 L17.6162971,63.6120368 L17.6162971,63.6120368 Z"/><path d="M32.2789394,49.8877956 L25.4916905,42.8593936 L21.7042746,44.2371664 L6.48416423,37.1611704 L-0.0563471301,21.703383 L2.52181975,15.3190513 L2.52181975,15.3190513 L17.7121278,31.0490758 L31.0223163,18.1955762 L16.4360981,3.09110507 L20.8980584,1.46794882 L36.1181688,8.54394487 L42.6586801,24.0017322 L39.811738,31.0516337 L39.811738,31.0516337 L45.1402737,36.5694939 L32.2789394,49.8877956 Z M41.9591418,59.9119387 L73.3751612,92.444179 C76.9189015,96.1138296 82.7780484,96.218347 86.4535554,92.6689511 C90.1298706,89.1187748 90.2328403,83.2642135 86.6853496,79.5906794 L54.8204762,46.593637 L41.9591418,59.9119387 Z M80.732444,88.2176745 C82.1194278,86.8782798 82.0761678,84.583367 80.6358201,83.0918433 C79.1954724,81.6003196 76.9034674,81.4769947 75.5164836,82.8163894 C74.1294998,84.155784 74.1727598,86.4506968 75.6131075,87.9422205 C77.0534552,89.4337442 79.3454602,89.5570691 80.732444,88.2176745 Z"/></g></g></g></svg>