<svg xmlns="http://www.w3.org/2000/svg" xmlns:xlink="http://www.w3.org/1999/xlink" version="1.1" x="0px" y="0px" viewBox="0 0 100 125" enable-background="new 0 0 100 100" xml:space="preserve"><g><g><path d="M33.017,85.258c-0.516,0-1.035-0.152-1.483-0.46c-0.985-0.675-1.39-1.929-0.986-3.053L37.1,63.504l-13.58,0.002    c-0.894,0-1.726-0.455-2.209-1.207c-0.483-0.752-0.55-1.698-0.178-2.511l19.918-43.515c0.427-0.934,1.36-1.532,2.387-1.532H76.48    c0.959,0,1.842,0.523,2.302,1.364c0.461,0.841,0.426,1.866-0.09,2.674L59.207,49.27l9.291-0.002c0,0,0.001,0,0.001,0    c1.096,0,2.076,0.681,2.459,1.708s0.088,2.184-0.741,2.901l-35.481,30.74C34.245,85.042,33.632,85.258,33.017,85.258z     M40.832,58.254c0.854,0,1.656,0.416,2.147,1.115c0.492,0.699,0.612,1.594,0.323,2.398l-4.424,12.315L61.458,54.52l-7.043,0.002h0    c-0.959,0-1.841-0.523-2.302-1.364c-0.461-0.841-0.426-1.867,0.09-2.675l19.485-30.491H45.124L27.609,58.256L40.832,58.254z"/></g><g><path d="M38.512,53.879c-0.894,0-1.726-0.455-2.208-1.207c-0.483-0.752-0.55-1.698-0.178-2.511l7.867-17.185    c0.604-1.318,2.16-1.897,3.479-1.294c1.318,0.604,1.897,2.161,1.294,3.479l-6.165,13.465l1.097,0c0,0,0,0,0.001,0    c1.449,0,2.625,1.174,2.625,2.624s-1.174,2.625-2.624,2.626L38.512,53.879C38.513,53.879,38.513,53.879,38.512,53.879z"/></g></g>
<!-- <text x="0" y="115" fill="#000000" font-size="5px" font-weight="bold" font-family="'Helvetica Neue', Helvetica, Arial-Unicode, Arial, Sans-serif">Created by João Paulo Fernandes</text><text x="0" y="120" fill="#000000" font-size="5px" font-weight="bold" font-family="'Helvetica Neue', Helvetica, Arial-Unicode, Arial, Sans-serif">from the Noun Project</text>-->
</svg>